<svg width="212" height="83" viewBox="0 0 212 83" fill="none" xmlns="http://www.w3.org/2000/svg">
<path d="M45.0886 61.4065C36.8959 61.4065 30.5238 66.13 30.5238 72.2032C30.5238 78.2764 36.8959 83 45.0886 83C53.2813 83 59.6534 78.2764 59.6534 72.2032C59.6534 66.13 53.2813 61.4065 45.0886 61.4065ZM131.567 0H124.284V13.1585H151.593L131.567 0ZM1.39437 74.2276H19.6003C19.6003 74.2276 20.5106 53.9837 46.9092 53.9837C66.4805 53.9837 69.6666 74.2276 69.6666 74.2276H115.181V0H0.484161L1.39437 74.2276ZM173.44 61.4065C165.248 61.4065 158.876 66.13 158.876 72.2032C158.876 78.2764 165.248 83 173.44 83C181.633 83 188.005 78.2764 188.005 72.2032C188.005 66.13 181.178 61.4065 173.44 61.4065ZM156.145 16.8699H124.284V74.2276H151.593C151.593 74.2276 147.952 57.3577 174.351 57.3577C194.377 57.3577 193.922 74.2276 193.922 74.2276H210.763L211.673 48.9228L156.145 16.8699ZM151.593 60.7317H133.387V53.9837H151.593V60.7317ZM149.773 48.5853L131.567 40.4878V21.5935H149.773L197.108 48.5853H149.773Z" fill="white" fill-opacity="0.4"/>
</svg>
